#!OML:ASF E:\emotionWalksFemale\Project 1\Capture day 1\Session 1\Female1.ASF
:FULLY-SPECIFIED
:DEGREES
1
root 7.8974 15.2034 40.018 -179.756 -1.16204 -179.801
lowerback 7.09509 0.603292 0.514879
upperback -4.68011 0.778971 0.13508
thorax -8.93295 0.310182 -0.254027
lowerneck -9.52754 -0.51403 -2.9259
upperneck 4.65069 -0.48719 2.29218
head 3.20801 -0.208107 1.24288
rclavicle -3.3048e-015 4.96962e-017
rhumerus -56.8536 13.2101 -85.1275
rradius 31.9417
rwrist 15.0978
rhand -7.06534 -50.9852
rfingers 7.12502
rthumb 18.808 -80.0959
lclavicle -3.3048e-015 4.96962e-017
lhumerus -61.3155 -4.92268 84.6797
lradius 34.3604
lwrist -18.1668
lhand 20.1773 -19.9883
lfingers 7.12502
lthumb 44.7002 3.62845
rfemur -4.2795 12.9408 28.4275
rtibia 30.8393
rfoot -44.6205 -29.8418
rtoes 37.9843
lfemur -7.94698 -26.177 -22.4338
ltibia 29.3903
lfoot -29.138 16.6336
ltoes -13.5774
2
root 7.88844 15.1545 40.0292 -179.713 -1.17891 -179.554
lowerback 7.00294 0.494852 0.846793
upperback -4.61419 0.673202 0.166296
thorax -8.80427 0.24128 -0.390878
lowerneck -9.56359 -0.561167 -3.63463
upperneck 4.60072 -0.525885 3.19105
head 3.21543 -0.205675 1.6681
rclavicle -1.30452e-015 -8.44835e-016
rhumerus -56.9764 12.6748 -85.0434
rradius 31.9088
rwrist 15.1395
rhand -6.45639 -50.988
rfingers 7.12502
rthumb 19.3936 -80.0409
lclavicle -1.30452e-015 -8.44835e-016
lhumerus -61.1168 -3.70318 83.6266
lradius 33.4935
lwrist -18.9602
lhand 13.5675 -25.4648
lfingers 7.12502
lthumb 38.5016 0.196149
rfemur -4.31159 14.9968 28.5653
rtibia 29.122
rfoot -36.517 -33.3892
rtoes 29.5902
lfemur -9.10448 -25.2445 -22.0139
ltibia 31.2101
lfoot -29.5481 16.1034
ltoes -16.9139
3
root 7.88528 15.12 40.0335 -179.719 -1.13063 -179.346
lowerback 6.98604 0.490557 1.06778
upperback -4.59013 0.69396 0.193383
thorax -8.76583 0.239576 -0.489099
lowerneck -9.15319 -0.604083 -3.29251
upperneck 4.11296 -0.609754 2.85838
head 2.96455 -0.256462 1.48282
rclavicle -6.24308e-016 -3.2054e-015
rhumerus -57.0205 11.5591 -84.5266
rradius 31.7047
rwrist 15.8336
rhand -4.16534 -51.2057
rfingers 7.12502
rthumb 21.5952 -80.0216
lclavicle -6.24308e-016 -3.2054e-015
lhumerus -61.151 -3.03233 82.8829
lradius 33.0564
lwrist -19.7182
lhand 10.9174 -27.8725
lfingers 7.12502
lthumb 35.9959 -1.55496
rfemur -4.61112 15.9744 28.7737
rtibia 29.0647
rfoot -35.9323 -34.7722
rtoes 28.0225
lfemur -9.21946 -24.9308 -21.7482
ltibia 31.2267
lfoot -29.3564 16.0102
ltoes -17.2455
4
root 7.88328 15.1334 40.0272 -179.838 -1.03162 -179.721
lowerback 6.99301 0.560836 0.710093
upperback -4.5243 0.745464 0.081772
thorax -8.70024 0.285073 -0.413838
lowerneck -9.3472 -0.749669 -3.99628
upperneck 4.21651 -0.766205 3.60519
head 3.06068 -0.318092 1.85353
rclavicle 3.18987e-015 2.01269e-015
rhumerus -57.0164 10.3228 -83.9156
rradius 31.2966
rwrist 16.3993
rhand -1.30287 -51.9383
rfingers 7.12502
rthumb 24.3419 -80.4124
lclavicle 3.18987e-015 2.01269e-015
lhumerus -61.1004 -2.28682 82.1365
lradius 32.4966
lwrist -20.5778
lhand 9.83743 -28.5677
lfingers 7.12502
lthumb 34.9721 -2.00514
rfemur -4.0592 15.3016 28.4176
rtibia 28.7793
rfoot -36.2044 -34.0121
rtoes 27.8086
lfemur -9.07003 -24.9865 -22.2897
ltibia 31.4358
lfoot -29.4034 16.406
ltoes -17.3578
5
root 7.88249 15.1914 40.0374 -179.591 -0.967521 -179.468
lowerback 6.95524 0.607811 0.956482
upperback -4.64809 0.833831 0.167391
thorax -8.8096 0.31154 -0.473999
lowerneck -9.12299 -0.82812 -3.84548
upperneck 3.90281 -0.875615 3.34972
head 2.90955 -0.380962 1.72972
rclavicle 1.15544e-015 1.14301e-015
rhumerus -57.0769 9.51213 -83.6704
rradius 30.7631
rwrist 16.2549
rhand -0.394176 -52.5271
rfingers 7.12502
rthumb 25.2128 -80.8815
lclavicle 1.15544e-015 1.14301e-015
lhumerus -61.0499 -1.49446 81.3637
lradius 31.8284
lwrist -21.2207
lhand 8.70017 -29.1509
lfingers 7.12502
lthumb 33.8925 -2.34334
rfemur -3.75247 13.5009 28.6874
rtibia 28.8036
rfoot -43.4708 -30.8108
rtoes 36.9652
lfemur -9.35159 -24.8215 -21.8305
ltibia 31.3415
lfoot -29.0897 16.5042
ltoes -16.9947
